<?xml version="1.0" encoding="UTF-8" standalone="no"?>
<svg
   width="42"
   height="42"
   viewBox="0 0 42 42"
   fill="none"
   version="1.1"
   id="svg47"
   sodipodi:docname="app_icon.svg"
   inkscape:version="1.1 (c68e22c387, 2021-05-23)"
   inkscape:export-filename="C:\Projekte\AndroidProjekte\ai.personal.android\app\src\main\res\drawable\notification_icon.png"
   inkscape:export-xdpi="54.857143"
   inkscape:export-ydpi="54.857143"
   xmlns:inkscape="http://www.inkscape.org/namespaces/inkscape"
   xmlns:sodipodi="http://sodipodi.sourceforge.net/DTD/sodipodi-0.dtd"
   xmlns="http://www.w3.org/2000/svg"
   xmlns:svg="http://www.w3.org/2000/svg">
  <sodipodi:namedview
     id="namedview49"
     pagecolor="#ffffff"
     bordercolor="#666666"
     borderopacity="1.0"
     inkscape:pageshadow="2"
     inkscape:pageopacity="0.0"
     inkscape:pagecheckerboard="0"
     showgrid="false"
     inkscape:zoom="4.930131"
     inkscape:cx="46.550487"
     inkscape:cy="17.545173"
     inkscape:window-width="1600"
     inkscape:window-height="837"
     inkscape:window-x="-8"
     inkscape:window-y="-8"
     inkscape:window-maximized="1"
     inkscape:current-layer="svg47" />
  <g
     id="g970"
     transform="translate(3.2453499,3.853853)">
    <path
       d="m 28.2018,5.15174 c 0.7858,0.00439 1.5389,0.3082 2.0996,0.847 0.5607,0.53879 0.8848,1.27016 0.9036,2.03896 0.008,0.38637 -0.062,0.77047 -0.2059,1.13036 -0.1438,0.35989 -0.3587,0.68851 -0.6324,0.96704 -0.2737,0.2786 -0.6008,0.5016 -0.9627,0.6564 -0.3618,0.1547 -0.7512,0.2382 -1.146,0.2455 H 28.1964 C 27.4103,11.0326 26.657,10.7286 26.0963,10.1894 25.5355,9.65024 25.2116,8.91842 25.1932,8.14931 25.1853,7.76294 25.2553,7.37883 25.3991,7.01895 25.543,6.65906 25.7579,6.33044 26.0316,6.05189 26.3053,5.77333 26.6324,5.5503 26.9942,5.39555 27.3561,5.24079 27.7455,5.15734 28.1403,5.14997 h 0.0615 z m 0,-2.85584 h -0.1194 c -1.5555,0.03688 -3.0337,0.67127 -4.1151,1.76607 -1.0814,1.09481 -1.6793,2.56209 -1.6643,4.08476 0.015,1.52266 0.6416,2.97837 1.7443,4.05267 1.1028,1.0742 2.5932,1.6806 4.1491,1.6882 h 0.1195 c 1.5303,-0.0713 2.9729,-0.72 4.0248,-1.8101 1.052,-1.0901 1.6314,-2.53666 1.6166,-4.03595 C 33.9426,6.54225 33.3348,5.10687 32.2616,4.03683 31.1884,2.96679 29.7333,2.34534 28.2018,2.30298 Z"
       fill="#6656ff"
       id="path2" />
    <path
       d="M 34.04,0.133143 32.6476,1.48878 c -0.1864,0.18148 -0.1872,0.4765 -0.0018,0.65893 l 1.3852,1.36275 c 0.1854,0.18244 0.4869,0.18321 0.6733,0.00173 L 36.0968,2.15655 C 36.2832,1.97507 36.284,1.68006 36.0985,1.49762 L 34.7133,0.134868 C 34.5279,-0.0475666 34.2265,-0.0483383 34.04,0.133143 Z"
       fill="#6656ff"
       id="path4" />
    <path
       d="m 9.93627,4.78327 c 0.59453,0 1.17573,0.17249 1.67013,0.49568 0.4944,0.32319 0.8798,0.78256 1.1074,1.32005 0.2277,0.53749 0.2875,1.12898 0.1718,1.6997 C 12.7698,8.86942 12.4838,9.39376 12.0637,9.80543 11.6435,10.2171 11.1081,10.4977 10.5251,10.6116 9.94206,10.7255 9.33761,10.6678 8.78813,10.4456 8.23864,10.2234 7.76879,9.84679 7.43797,9.36334 7.10714,8.87989 6.93019,8.31131 6.92947,7.72946 6.92947,6.9487 7.24614,6.19986 7.80992,5.64744 8.3737,5.09502 9.13849,4.78421 9.93627,4.78327 Z m 0,-2.85407 C 8.76495,1.9292 7.61992,2.26908 6.64596,2.90588 5.67199,3.54267 4.91281,4.44779 4.4644,5.50679 4.01599,6.5658 3.89848,7.73114 4.12673,8.8555 c 0.22825,1.12436 0.79201,2.1572 1.62001,2.9681 0.82799,0.8108 1.88305,1.3632 3.03178,1.5872 1.14872,0.2241 2.33958,0.1098 3.42188,-0.3284 1.0824,-0.4382 2.0077,-1.1806 2.659,-2.1334 0.6512,-0.95282 0.9992,-2.07321 1,-3.21954 0,-1.53738 -0.6241,-3.0118 -1.7349,-4.0989 C 13.0137,2.54347 11.5072,1.93274 9.93627,1.93274 Z"
       fill="#06001c"
       id="path6" />
    <path
       d="M 15.0954,19.3638 6.11483,30.665 3.25829,19.3638 H 15.0972 Z m 2.4945,-2.854 H 1.69786 c -0.25755,10e-5 -0.51169,0.0576 -0.743182,0.1681 -0.231492,0.1105 -0.434268,0.2711 -0.592982,0.4696 -0.158714,0.1985 -0.269205,0.4298 -0.3231111,0.6762 -0.053906,0.2465 -0.0498143,0.5018 0.0119657,0.7465 L 3.88825,33.7387 c 0.08957,0.3623 0.30189,0.6842 0.60236,0.9133 0.30046,0.229 0.67134,0.3517 1.05219,0.3481 0.25822,0.0017 0.5133,-0.0554 0.74514,-0.1667 0.23184,-0.1113 0.43409,-0.2738 0.59081,-0.4746 L 18.9349,19.1902 c 0.1947,-0.2455 0.3151,-0.5395 0.3476,-0.8486 0.0324,-0.3092 -0.0243,-0.621 -0.1638,-0.9002 -0.1395,-0.2791 -0.3562,-0.5144 -0.6255,-0.6791 -0.2693,-0.1647 -0.5803,-0.2522 -0.8979,-0.2525 z"
       fill="#06001c"
       id="path8" />
    <path
       d="m 27.3073,20.7989 2.8964,11.3383 H 18.2019 Z m 0.5703,-4.3228 c -0.2562,-6e-4 -0.5092,0.0564 -0.7392,0.1667 -0.2301,0.1103 -0.4312,0.2709 -0.5878,0.4693 L 14.3587,32.3143 c -0.1959,0.2452 -0.3176,0.5392 -0.3512,0.8487 -0.0335,0.3095 0.0224,0.622 0.1614,0.9019 0.1391,0.2799 0.3557,0.516 0.6251,0.6813 0.2694,0.1654 0.5809,0.2533 0.8989,0.2539 h 16.0748 c 0.2578,0 0.5121,-0.0575 0.7437,-0.1681 0.2316,-0.1106 0.4344,-0.2714 0.593,-0.4702 0.1587,-0.1988 0.2689,-0.4303 0.3224,-0.677 0.0535,-0.2467 0.0489,-0.5022 -0.0136,-0.7468 L 29.5321,17.7411 c -0.0895,-0.3627 -0.3016,-0.685 -0.602,-0.9147 -0.3004,-0.2296 -0.6714,-0.3531 -1.0525,-0.3503 z"
       fill="#6656ff"
       id="path10" />
  </g>
  <defs
     id="defs45">
    <clipPath
       id="clip0_920:417">
      <rect
         width="229"
         height="35"
         fill="#ffffff"
         id="rect42"
         x="0"
         y="0" />
    </clipPath>
  </defs>
</svg>
