<?xml version="1.0" encoding="UTF-8" standalone="no"?>
<svg
   width="229"
   height="35"
   viewBox="0 0 229 35"
   fill="none"
   version="1.1"
   id="svg47"
   sodipodi:docname="personal-ai-logo.svg"
   inkscape:export-filename="C:\Projekte\AndroidProjekte\ai.personal.android\app\src\main\res\drawable\ic_logo.png"
   inkscape:export-xdpi="96"
   inkscape:export-ydpi="96"
   inkscape:version="1.1 (c68e22c387, 2021-05-23)"
   xmlns:inkscape="http://www.inkscape.org/namespaces/inkscape"
   xmlns:sodipodi="http://sodipodi.sourceforge.net/DTD/sodipodi-0.dtd"
   xmlns="http://www.w3.org/2000/svg"
   xmlns:svg="http://www.w3.org/2000/svg">
  <sodipodi:namedview
     id="namedview49"
     pagecolor="#ffffff"
     bordercolor="#666666"
     borderopacity="1.0"
     inkscape:pageshadow="2"
     inkscape:pageopacity="0.0"
     inkscape:pagecheckerboard="0"
     showgrid="false"
     inkscape:zoom="2.4650655"
     inkscape:cx="91.883968"
     inkscape:cy="25.354296"
     inkscape:window-width="1600"
     inkscape:window-height="837"
     inkscape:window-x="-8"
     inkscape:window-y="-8"
     inkscape:window-maximized="1"
     inkscape:current-layer="svg47" />
  <g
     clip-path="url(#clip0_920:417)"
     id="g40">
    <path
       d="M28.2018 5.15174C28.9876 5.15613 29.7407 5.45994 30.3014 5.99874C30.8621 6.53753 31.1862 7.2689 31.205 8.0377C31.213 8.42407 31.143 8.80817 30.9991 9.16806C30.8553 9.52795 30.6404 9.85657 30.3667 10.1351C30.093 10.4137 29.7659 10.6367 29.404 10.7915C29.0422 10.9462 28.6528 11.0297 28.258 11.037H28.1964C27.4103 11.0326 26.657 10.7286 26.0963 10.1894C25.5355 9.65024 25.2116 8.91842 25.1932 8.14931C25.1853 7.76294 25.2553 7.37883 25.3991 7.01895C25.543 6.65906 25.7579 6.33044 26.0316 6.05189C26.3053 5.77333 26.6324 5.5503 26.9942 5.39555C27.3561 5.24079 27.7455 5.15734 28.1403 5.14997H28.2018V5.15174ZM28.2018 2.2959H28.0824C26.5269 2.33278 25.0487 2.96717 23.9673 4.06197C22.8859 5.15678 22.288 6.62406 22.303 8.14673C22.318 9.66939 22.9446 11.1251 24.0473 12.1994C25.1501 13.2736 26.6405 13.88 28.1964 13.8876H28.3159C29.8462 13.8163 31.2888 13.1676 32.3407 12.0775C33.3927 10.9874 33.9721 9.54084 33.9573 8.04155C33.9426 6.54225 33.3348 5.10687 32.2616 4.03683C31.1884 2.96679 29.7333 2.34534 28.2018 2.30298V2.2959Z"
       fill="#6656FF"
       id="path2" />
    <path
       d="M34.04 0.133143L32.6476 1.48878C32.4612 1.67026 32.4604 1.96528 32.6458 2.14771L34.031 3.51046C34.2164 3.6929 34.5179 3.69367 34.7043 3.51219L36.0968 2.15655C36.2832 1.97507 36.284 1.68006 36.0985 1.49762L34.7133 0.134868C34.5279 -0.0475666 34.2265 -0.0483383 34.04 0.133143Z"
       fill="#6656FF"
       id="path4" />
    <path
       d="M9.93627 4.78327C10.5308 4.78327 11.112 4.95576 11.6064 5.27895C12.1008 5.60214 12.4862 6.06151 12.7138 6.599C12.9415 7.13649 13.0013 7.72798 12.8856 8.2987C12.7698 8.86942 12.4838 9.39376 12.0637 9.80543C11.6435 10.2171 11.1081 10.4977 10.5251 10.6116C9.94206 10.7255 9.33761 10.6678 8.78813 10.4456C8.23864 10.2234 7.76879 9.84679 7.43797 9.36334C7.10714 8.87989 6.93019 8.31131 6.92947 7.72946C6.92947 6.9487 7.24614 6.19986 7.80992 5.64744C8.3737 5.09502 9.13849 4.78421 9.93627 4.78327ZM9.93627 1.9292C8.76495 1.9292 7.61992 2.26908 6.64596 2.90588C5.67199 3.54267 4.91281 4.44779 4.4644 5.50679C4.01599 6.5658 3.89848 7.73114 4.12673 8.8555C4.35498 9.97986 4.91874 11.0127 5.74674 11.8236C6.57473 12.6344 7.62979 13.1868 8.77852 13.4108C9.92724 13.6349 11.1181 13.5206 12.2004 13.0824C13.2828 12.6442 14.2081 11.9018 14.8594 10.949C15.5106 9.99618 15.8586 8.87579 15.8594 7.72946C15.8594 6.19208 15.2353 4.71766 14.1245 3.63056C13.0137 2.54347 11.5072 1.93274 9.93627 1.93274V1.9292Z"
       fill="#06001C"
       id="path6" />
    <path
       d="M15.0954 19.3638L6.11483 30.665L3.25829 19.3638H15.0972H15.0954ZM17.5899 16.5098H1.69786C1.44031 16.5099 1.18617 16.5674 0.954678 16.6779C0.723186 16.7884 0.52041 16.949 0.361696 17.1475C0.202982 17.346 0.092491 17.5773 0.0385849 17.8237C-0.0153211 18.0702 -0.0112294 18.3255 0.0505506 18.5702L3.88825 33.7387C3.97782 34.101 4.19014 34.4229 4.49061 34.652C4.79107 34.881 5.16195 35.0037 5.5428 35.0001C5.80102 35.0018 6.0561 34.9447 6.28794 34.8334C6.51978 34.7221 6.72203 34.5596 6.87875 34.3588L18.9349 19.1902C19.1296 18.9447 19.25 18.6507 19.2825 18.3416C19.3149 18.0324 19.2582 17.7206 19.1187 17.4414C18.9792 17.1623 18.7625 16.927 18.4932 16.7623C18.2239 16.5976 17.9129 16.5101 17.5953 16.5098H17.5899Z"
       fill="#06001C"
       id="path8" />
    <path
       d="M27.3073 20.7989L30.2037 32.1372H18.2019L27.3073 20.7989ZM27.8776 16.4761C27.6214 16.4755 27.3684 16.5325 27.1384 16.6428C26.9083 16.7531 26.7072 16.9137 26.5506 17.1121L14.3587 32.3143C14.1628 32.5595 14.0411 32.8535 14.0075 33.163C13.974 33.4725 14.0299 33.785 14.1689 34.0649C14.308 34.3448 14.5246 34.5809 14.794 34.7462C15.0634 34.9116 15.3749 34.9995 15.6929 35.0001H31.7677C32.0255 35.0001 32.2798 34.9426 32.5114 34.832C32.743 34.7214 32.9458 34.5606 33.1044 34.3618C33.2631 34.163 33.3733 33.9315 33.4268 33.6848C33.4803 33.4381 33.4757 33.1826 33.4132 32.938L29.5321 17.7411C29.4426 17.3784 29.2305 17.0561 28.9301 16.8264C28.6297 16.5968 28.2587 16.4733 27.8776 16.4761Z"
       fill="#6656FF"
       id="path10" />
    <path
       d="M48.755 32.9963C48.6888 33.0037 48.6218 32.9963 48.5589 32.9748C48.4961 32.9533 48.439 32.9181 48.392 32.8719C48.345 32.8257 48.3092 32.7698 48.2875 32.7081C48.2657 32.6465 48.2584 32.5809 48.2662 32.5162V10.1939C48.2584 10.1291 48.2657 10.0635 48.2875 10.0019C48.3092 9.94029 48.345 9.88431 48.392 9.83813C48.439 9.79196 48.4961 9.75678 48.5589 9.73524C48.6218 9.7137 48.6888 9.70636 48.755 9.71375H50.7861C51.101 9.71375 51.2404 9.89091 51.2404 10.1939L51.3092 12.7627C52.5348 10.6368 54.7052 9.30273 57.6451 9.30273C62.5798 9.30273 66.0083 13.1046 66.0083 18.1041C66.0083 23.139 62.5798 26.9055 57.6451 26.9055C54.812 26.9055 52.676 25.6654 51.4522 23.6865V32.5215C51.4597 32.5863 51.4522 32.652 51.4302 32.7136C51.4082 32.7752 51.3723 32.8311 51.3252 32.8772C51.278 32.9234 51.2209 32.9585 51.1579 32.98C51.095 33.0016 51.0279 33.0089 50.9617 33.0016L48.755 32.9963ZM62.9273 18.0988C62.9273 14.5715 60.4781 12.1409 57.0839 12.1409C53.7241 12.1409 51.3798 14.5715 51.3798 18.1342C51.3798 21.6969 53.7241 24.0585 57.0839 24.0585C60.4781 24.0585 62.9273 21.6615 62.9273 18.0988Z"
       fill="#06001C"
       id="path12" />
    <path
       d="M69.2271 18.0314C69.2271 13.0992 72.7606 9.29736 77.9053 9.29736C83.0138 9.29736 85.988 13.0992 85.988 17.243C85.988 18.6125 85.7074 19.229 84.5543 19.229H72.3063C72.69 22.2408 74.8949 24.3667 78.6747 24.3667C80.3453 24.4 81.9807 23.8945 83.3288 22.9282C83.5388 22.7917 83.7487 22.7917 83.8881 22.9618L84.6593 24.0248C84.9037 24.2994 84.7987 24.5049 84.5181 24.7441C83.0138 26.1826 80.8089 26.9019 78.3941 26.9019C72.7968 26.9001 69.2271 22.9618 69.2271 18.0314ZM83.1894 16.9348C83.0084 13.923 80.9845 11.9353 77.9053 11.9353C74.8261 11.9353 72.6556 13.8185 72.3063 16.9348H83.1894Z"
       fill="#06001C"
       id="path14" />
    <path
       d="M90.573 26.4891C90.5069 26.4967 90.4398 26.4896 90.3769 26.4683C90.3139 26.447 90.2567 26.412 90.2095 26.366C90.1624 26.32 90.1264 26.2642 90.1044 26.2027C90.0824 26.1411 90.0749 26.0755 90.0824 26.0108V10.1885C90.0749 10.1237 90.0825 10.058 90.1045 9.99642C90.1265 9.93483 90.1624 9.87889 90.2095 9.83275C90.2567 9.78662 90.3138 9.75148 90.3768 9.72994C90.4397 9.70841 90.5068 9.70104 90.573 9.70838H92.6367C92.986 9.70838 93.1273 9.84656 93.1273 10.2221L93.2268 12.2081C93.8568 10.5641 95.0117 9.29736 97.1098 9.29736C97.8447 9.29736 98.3769 9.43555 98.6847 9.64106C98.7831 9.70977 98.8611 9.80299 98.9104 9.91107C98.9598 10.0191 98.9787 10.1382 98.9652 10.2558V11.9353C98.9652 12.3127 98.7209 12.38 98.3353 12.2772C97.9246 12.1553 97.4973 12.0955 97.0681 12.1001C94.2116 12.1054 93.2268 14.5041 93.2268 16.5238V26.0108C93.2268 26.319 93.0874 26.4891 92.7724 26.4891H90.573Z"
       fill="#06001C"
       id="path16" />
    <path
       d="M102.26 24.2976C102.016 24.023 102.05 23.7502 102.26 23.4118L102.961 22.4534C103.205 22.1451 103.52 22.1451 103.8 22.4197C104.954 23.5164 106.214 24.2693 107.928 24.2693C109.715 24.2693 110.938 23.4809 110.938 21.9396C110.938 20.5702 109.993 19.92 108.489 19.3035L106.425 18.4478C104.324 17.5903 102.609 16.3218 102.609 13.9603C102.609 11.0495 105.129 9.3027 108.069 9.3027C109.066 9.28834 110.054 9.49602 110.957 9.91005C111.86 10.3241 112.655 10.9336 113.282 11.6926C113.367 11.7941 113.41 11.9226 113.404 12.0534C113.397 12.1841 113.342 12.308 113.248 12.4013L112.415 13.3739C112.135 13.7158 111.89 13.6821 111.575 13.3739C110.489 12.3109 109.403 11.8326 108.216 11.8326C106.782 11.8326 105.627 12.5518 105.627 13.8876C105.627 15.2908 106.677 15.8736 108.216 16.4565L110.106 17.2094C112.31 18.0952 114.088 19.4009 114.059 22.0034C114.059 25.1923 111.26 26.9001 108.085 26.9001C105.269 26.9001 103.344 25.598 102.26 24.2976Z"
       fill="#06001C"
       id="path18" />
    <path
       d="M117.303 18.0987C117.303 13.0992 121.117 9.29736 126.157 9.29736C131.197 9.29736 134.975 13.0992 134.975 18.0987C134.975 23.0982 131.195 26.9001 126.157 26.9001C121.119 26.9001 117.303 23.0982 117.303 18.0987ZM131.93 18.0987C131.93 14.5715 129.446 12.1408 126.157 12.1408C122.832 12.1408 120.382 14.5715 120.382 18.0987C120.382 21.626 122.832 24.023 126.157 24.023C129.45 24.023 131.933 21.626 131.933 18.0987H131.93Z"
       fill="#06001C"
       id="path20" />
    <path
       d="M139.569 26.4893C139.503 26.4969 139.436 26.4898 139.373 26.4685C139.31 26.4472 139.253 26.4122 139.206 26.3662C139.158 26.3202 139.123 26.2644 139.1 26.2028C139.078 26.1413 139.071 26.0757 139.079 26.0109V10.1887C139.071 10.1238 139.079 10.0582 139.101 9.9966C139.123 9.93501 139.158 9.87907 139.206 9.83293C139.253 9.7868 139.31 9.75166 139.373 9.73013C139.436 9.70859 139.503 9.70122 139.569 9.70856H141.633C141.982 9.70856 142.123 9.84674 142.123 10.2223L142.228 12.3483C143.208 10.6351 145.027 9.29932 147.791 9.29932C151.466 9.29932 154.02 11.7317 154.02 16.1501V26.0127C154.028 26.0775 154.02 26.1431 153.998 26.2046C153.976 26.2661 153.94 26.322 153.893 26.368C153.846 26.414 153.789 26.449 153.726 26.4703C153.663 26.4916 153.596 26.4987 153.53 26.4911H151.321C151.006 26.4911 150.865 26.3139 150.865 26.0127V16.6232C150.865 13.8152 149.395 12.1374 146.772 12.1374C144.149 12.1374 142.223 13.8187 142.223 16.6267V26.0163C142.223 26.3245 142.084 26.4946 141.769 26.4946L139.569 26.4893Z"
       fill="#06001C"
       id="path22" />
    <path
       d="M158.109 18.0987C158.109 13.0992 161.538 9.29736 166.473 9.29736C169.411 9.29736 171.581 10.6332 172.809 12.7573L172.879 10.1885C172.879 9.88022 173.02 9.70838 173.333 9.70838H175.365C175.431 9.70098 175.498 9.70833 175.561 9.72987C175.623 9.75141 175.681 9.78659 175.728 9.83276C175.775 9.87894 175.81 9.93492 175.832 9.99652C175.854 10.0581 175.861 10.1237 175.853 10.1885V26.0108C175.861 26.0754 175.853 26.1408 175.831 26.2022C175.81 26.2635 175.774 26.3193 175.727 26.3652C175.68 26.4112 175.623 26.4462 175.56 26.4677C175.497 26.4891 175.431 26.4964 175.365 26.4891H173.33C173.017 26.4891 172.875 26.3119 172.875 26.0108L172.805 23.511C171.538 25.598 169.411 26.9001 166.469 26.9001C161.538 26.9001 158.109 23.1337 158.109 18.0987ZM172.736 18.1342C172.736 14.5715 170.383 12.1408 167.032 12.1408C163.638 12.1408 161.189 14.5715 161.189 18.0987C161.189 21.6614 163.638 24.0584 167.032 24.0584C170.392 24.0584 172.736 21.6951 172.736 18.1342Z"
       fill="#06001C"
       id="path24" />
    <path
       d="M181.309 26.4891C181.243 26.4968 181.176 26.4897 181.113 26.4683C181.05 26.447 180.993 26.4121 180.946 26.3661C180.899 26.32 180.863 26.2642 180.841 26.2027C180.819 26.1411 180.811 26.0756 180.819 26.0108V2.48021C180.811 2.41538 180.819 2.34973 180.841 2.28814C180.863 2.22656 180.899 2.17061 180.946 2.12448C180.993 2.07835 181.05 2.04321 181.113 2.02167C181.176 2.00014 181.243 1.99277 181.309 2.0001H183.514C183.58 1.99271 183.647 2.00006 183.71 2.0216C183.773 2.04314 183.83 2.07831 183.877 2.12449C183.924 2.17067 183.96 2.22665 183.982 2.28825C184.003 2.34985 184.011 2.41548 184.003 2.48021V26.0072C184.01 26.0718 184.003 26.1373 183.981 26.1986C183.959 26.26 183.923 26.3158 183.876 26.3617C183.829 26.4077 183.772 26.4427 183.71 26.4642C183.647 26.4856 183.58 26.4929 183.514 26.4856L181.309 26.4891Z"
       fill="#06001C"
       id="path26" />
    <path
       d="M188.027 24.8805C188.027 24.3355 188.249 23.8128 188.642 23.4274C189.036 23.042 189.57 22.8254 190.127 22.8254C190.684 22.8254 191.218 23.042 191.612 23.4274C192.006 23.8128 192.227 24.3355 192.227 24.8805C192.227 25.4255 192.006 25.9483 191.612 26.3337C191.218 26.7191 190.684 26.9356 190.127 26.9356C189.57 26.9356 189.036 26.7191 188.642 26.3337C188.249 25.9483 188.027 25.4255 188.027 24.8805Z"
       fill="#6656FF"
       id="path28" />
    <path
       d="M195.376 18.0987C195.376 13.0992 198.805 9.29736 203.74 9.29736C206.678 9.29736 208.848 10.6332 210.076 12.7573L210.144 10.1885C210.144 9.88022 210.286 9.70838 210.599 9.70838H212.63C212.696 9.70098 212.763 9.70833 212.826 9.72987C212.889 9.75141 212.946 9.78659 212.993 9.83276C213.04 9.87894 213.076 9.93492 213.097 9.99652C213.119 10.0581 213.126 10.1237 213.119 10.1885V26.0108C213.126 26.0754 213.119 26.1408 213.097 26.2022C213.075 26.2635 213.039 26.3193 212.992 26.3652C212.945 26.4112 212.888 26.4462 212.825 26.4677C212.763 26.4891 212.696 26.4964 212.63 26.4891H210.599C210.286 26.4891 210.144 26.3119 210.144 26.0108L210.076 23.511C208.808 25.598 206.68 26.9001 203.74 26.9001C198.805 26.9001 195.376 23.1337 195.376 18.0987ZM210.003 18.1342C210.003 14.5715 207.659 12.1408 204.299 12.1408C200.905 12.1408 198.456 14.5715 198.456 18.0987C198.456 21.6614 200.905 24.0584 204.299 24.0584C207.659 24.0584 210.003 21.6951 210.003 18.1342Z"
       fill="#06001C"
       id="path30" />
    <path
       d="M218.576 26.4893C218.261 26.4893 218.122 26.3121 218.122 26.011V10.1887C218.122 9.88041 218.261 9.70856 218.576 9.70856H220.781C220.848 9.70123 220.915 9.7086 220.978 9.73013C221.04 9.75166 221.098 9.78681 221.145 9.83294C221.192 9.87907 221.228 9.93502 221.25 9.9966C221.272 10.0582 221.279 10.1238 221.272 10.1887V26.011C221.279 26.0757 221.272 26.1413 221.25 26.2028C221.228 26.2644 221.192 26.3202 221.145 26.3662C221.098 26.4122 221.04 26.4472 220.977 26.4685C220.914 26.4898 220.847 26.4969 220.781 26.4893H218.576Z"
       fill="#06001C"
       id="path32" />
    <path
       d="M219.217 2.22133L217.31 4.23029C217.105 4.44532 217.118 4.78161 217.338 4.98142L219.391 6.84827C219.61 7.04808 219.954 7.03575 220.158 6.82073L222.066 4.81176C222.27 4.59674 222.257 4.26045 222.037 4.06063L219.985 2.19379C219.765 1.99397 219.421 2.00631 219.217 2.22133Z"
       fill="#6656FF"
       id="path34" />
    <path
       d="M224.901 24.7283H226.641V24.9621H225.917V26.7816H225.647V24.9621H224.923L224.901 24.7283Z"
       fill="#06001C"
       id="path36" />
    <path
       d="M227.908 26.7816L227.246 25.2172V26.7816H226.989V24.7283H227.293L228.004 26.4131L228.712 24.7283H228.995V26.7816H228.737V25.2172L228.082 26.7816H227.908Z"
       fill="#06001C"
       id="path38" />
  </g>
  <defs
     id="defs45">
    <clipPath
       id="clip0_920:417">
      <rect
         width="229"
         height="35"
         fill="white"
         id="rect42" />
    </clipPath>
  </defs>
</svg>
